<svg width="52" height="42" viewBox="0 0 52 42" fill="none" xmlns="http://www.w3.org/2000/svg">
<path d="M1 28.2848V6C1 3.23858 3.23858 1 6 1H46C48.7614 1 51 3.23857 51 6V34.1126M1 28.2848V36C1 38.7614 3.23858 41 6 41H46C48.7614 41 51 38.7614 51 36V34.1126M1 28.2848L12.3323 18.507C14.2682 16.8367 17.1522 16.896 19.0178 18.6444L27.9131 26.9811C29.6949 28.651 32.4223 28.7895 34.3641 27.3087L36.2793 25.8482C38.239 24.3538 40.9954 24.5102 42.7735 26.2168L51 34.1126" stroke="white" stroke-width="2"/>
<ellipse cx="37.5788" cy="11.3312" rx="3.42105" ry="3.44371" fill="white"/>
</svg>
