<svg width="59" height="54" viewBox="0 0 59 54" fill="none" xmlns="http://www.w3.org/2000/svg">
<path d="M37 14.8205V6.99999C37 4.23857 34.7614 2 32 2H7C4.23858 2 2 4.23858 2 7V47C2 49.7614 4.23858 52 7 52H32C34.7614 52 37 49.7614 37 47V38.7521" stroke="white" stroke-width="3"/>
<path d="M58.0607 28.0607C58.6464 27.4749 58.6464 26.5251 58.0607 25.9393L48.5147 16.3934C47.9289 15.8076 46.9792 15.8076 46.3934 16.3934C45.8076 16.9792 45.8076 17.9289 46.3934 18.5147L54.8787 27L46.3934 35.4853C45.8076 36.0711 45.8076 37.0208 46.3934 37.6066C46.9792 38.1924 47.9289 38.1924 48.5147 37.6066L58.0607 28.0607ZM17 28.5H57V25.5H17V28.5Z" fill="white"/>
</svg>
