<svg width="52" height="63" viewBox="0 0 52 63" fill="none" xmlns="http://www.w3.org/2000/svg">
<path d="M13 25.5V61.5H51V13H27" stroke="white" stroke-width="2"/>
<path d="M27 13.5C27 20.3696 21.2143 26 14 26C6.78571 26 1 20.3696 1 13.5C1 6.63041 6.78571 1 14 1C21.2143 1 27 6.63041 27 13.5Z" stroke="white" stroke-width="2"/>
<line x1="31" y1="24.5" x2="48" y2="24.5" stroke="white"/>
<line x1="22" y1="30.5" x2="48" y2="30.5" stroke="white"/>
<line x1="22" y1="35.5" x2="48" y2="35.5" stroke="white"/>
<line x1="22" y1="40.5" x2="48" y2="40.5" stroke="white"/>
<line x1="22" y1="45.5" x2="48" y2="45.5" stroke="white"/>
<line x1="31" y1="53.5" x2="48" y2="53.5" stroke="white"/>
<line x1="14.5" y1="4" x2="14.5" y2="14" stroke="white"/>
<line x1="24" y1="14.5" x2="14" y2="14.5" stroke="white"/>
</svg>